<svg width="1920" height="1080" viewBox="0 0 1920 1080" fill="none" xmlns="http://www.w3.org/2000/svg">
<g clip-path="url(#clip0_503_57)">
<rect width="1920" height="1080" fill="#020017"/>
<path opacity="0.0526316" d="M-13.4707 1219.36C38.2432 1280.72 203.526 1383.4 450.948 1303.23C760.224 1203.02 879.839 937.391 1155.87 799.658C1359.61 698 1907.05 545.406 2221.84 714.024" stroke="url(#paint0_linear_503_57)" stroke-width="3"/>
<path opacity="0.105263" d="M-64.4805 1090.72C-20.2416 1156.57 132.102 1274.09 387.564 1217.43C706.891 1146.6 856.983 893.577 1147.65 782.331C1362.18 700.224 1924.51 599.502 2217.81 796.543" stroke="url(#paint1_linear_503_57)" stroke-width="3"/>
<path opacity="0.157895" d="M-103.016 960.346C-66.7372 1029.96 70.9972 1161.04 331.701 1128.51C657.58 1087.83 836.504 850.188 1138.61 766.649C1361.59 704.992 1932.64 657.245 2201.25 880.55" stroke="url(#paint2_linear_503_57)" stroke-width="3"/>
<path opacity="0.210526" d="M-128.941 829.407C-101.019 902.018 20.5971 1045.23 283.686 1037.17C612.546 1027.1 818.343 807.44 1128.59 752.524C1357.57 711.992 1931.09 717.744 2172.05 964.866" stroke="url(#paint3_linear_503_57)" stroke-width="3"/>
<path opacity="0.263158" d="M-142.265 699.085C-123.006 773.902 -18.8397 927.664 243.752 944.18C571.991 964.826 802.405 765.551 1117.39 739.859C1349.87 720.896 1919.57 780.084 2130.24 1048.32" stroke="url(#paint4_linear_503_57)" stroke-width="3"/>
<path opacity="0.315789" d="M-143.124 570.551C-132.739 646.753 -47.1646 809.383 212.052 850.29C536.074 901.423 788.581 724.72 1104.85 728.533C1338.28 731.348 1897.92 843.322 2076.01 1129.73" stroke="url(#paint5_linear_503_57)" stroke-width="3"/>
<path opacity="0.368421" d="M-131.795 444.954C-130.398 521.706 -64.3526 691.424 188.65 756.272C504.904 837.333 776.737 685.138 1090.83 718.415C1322.65 742.976 1866.1 906.511 2009.64 1207.95" stroke="url(#paint6_linear_503_57)" stroke-width="3"/>
<path opacity="0.421053" d="M-108.695 323.418C-116.301 399.88 -70.509 574.825 173.508 662.905C478.528 773.004 766.71 646.985 1075.18 709.361C1302.85 755.399 1824.16 968.703 1931.59 1281.87" stroke="url(#paint7_linear_503_57)" stroke-width="3"/>
<path opacity="0.473684" d="M-74.3551 207.016C-90.8808 282.35 -65.8431 460.606 166.514 570.952C456.96 708.884 758.332 610.422 1057.8 701.213C1278.83 768.224 1772.29 1028.96 1842.42 1350.43" stroke="url(#paint8_linear_503_57)" stroke-width="3"/>
<path opacity="0.526316" d="M-29.4444 96.7681C-54.7089 170.149 -50.7 349.763 167.451 481.166C440.14 645.42 751.402 575.593 1038.59 693.805C1250.55 781.055 1710.75 1086.36 1742.82 1412.61" stroke="url(#paint9_linear_503_57)" stroke-width="3"/>
<path opacity="0.578947" d="M25.2557 -6.37601C-8.4707 64.248 -25.5347 243.251 176.021 394.272C427.966 583.048 745.705 542.621 1017.46 686.959C1218.04 793.492 1639.93 1140.03 1633.6 1467.48" stroke="url(#paint10_linear_503_57)" stroke-width="3"/>
<path opacity="0.631579" d="M88.8616 -101.538C47.0427 -34.4446 9.09291 141.987 191.845 310.971C420.284 522.2 741.022 511.617 994.375 680.499C1181.37 805.147 1560.33 1189.12 1515.65 1514.18" stroke="url(#paint11_linear_503_57)" stroke-width="3"/>
<path opacity="0.684211" d="M160.39 -187.933C110.937 -125.106 52.517 46.8209 214.463 231.916C416.895 463.285 737.115 482.661 969.287 674.237C1140.65 815.635 1472.54 1232.83 1390 1551.95" stroke="url(#paint12_linear_503_57)" stroke-width="3"/>
<path opacity="0.736842" d="M238.77 -264.874C182.225 -207.002 103.975 -41.4629 243.34 157.716C417.546 406.69 733.742 455.812 942.189 667.984C1096.04 824.582 1377.21 1270.44 1257.73 1580.11" stroke="url(#paint13_linear_503_57)" stroke-width="3"/>
<path opacity="0.789474" d="M322.855 -331.769C259.836 -279.485 162.614 -122.148 277.871 88.9325C421.944 352.783 730.65 431.114 913.089 661.556C1047.74 831.639 1275.12 1301.26 1120 1598.1" stroke="url(#paint14_linear_503_57)" stroke-width="3"/>
<path opacity="0.842105" d="M411.435 -388.144C342.634 -342.022 227.504 -194.61 317.392 26.0589C429.751 301.895 727.586 408.577 882.017 654.765C995.999 836.47 1167.09 1324.72 978.032 1605.47" stroke="url(#paint15_linear_503_57)" stroke-width="3"/>
<path opacity="0.894737" d="M503.256 -433.637C429.426 -394.182 297.65 -258.31 361.183 -30.4705C440.598 254.33 724.299 388.193 849.03 647.429C941.092 838.765 1054.02 1340.29 833.096 1601.88" stroke="url(#paint16_linear_503_57)" stroke-width="3"/>
<path opacity="0.947368" d="M597.022 -468.006C518.973 -435.65 371.995 -312.808 408.476 -80.2932C454.078 210.35 720.535 369.928 814.201 639.373C883.334 838.243 936.869 1347.55 686.492 1587.11" stroke="url(#paint17_linear_503_57)" stroke-width="3"/>
<path d="M691.42 -491.13C610.006 -466.227 449.435 -357.761 458.466 -123.119C469.755 170.184 716.049 353.729 777.623 630.429C823.069 834.655 816.62 1346.16 539.538 1561.07" stroke="url(#paint18_linear_503_57)" stroke-width="3"/>
</g>
<defs>
<linearGradient id="paint0_linear_503_57" x1="5.98889" y1="1272.77" x2="2141.91" y2="494.634" gradientUnits="userSpaceOnUse">
<stop stop-color="#AE10F9"/>
<stop offset="1" stop-color="#F6C4ED"/>
</linearGradient>
<linearGradient id="paint1_linear_503_57" x1="-51.3878" y1="1145.66" x2="2174.58" y2="615.152" gradientUnits="userSpaceOnUse">
<stop stop-color="#AE10F9"/>
<stop offset="1" stop-color="#F6C4ED"/>
</linearGradient>
<linearGradient id="paint2_linear_503_57" x1="-96.434" y1="1016.2" x2="2185.54" y2="747.279" gradientUnits="userSpaceOnUse">
<stop stop-color="#AE10F9"/>
<stop offset="1" stop-color="#F6C4ED"/>
</linearGradient>
<linearGradient id="paint3_linear_503_57" x1="-128.941" y1="885.57" x2="2172.05" y2="885.57" gradientUnits="userSpaceOnUse">
<stop stop-color="#AE10F9"/>
<stop offset="1" stop-color="#F6C4ED"/>
</linearGradient>
<linearGradient id="paint4_linear_503_57" x1="-148.847" y1="754.941" x2="2133.13" y2="1023.86" gradientUnits="userSpaceOnUse">
<stop stop-color="#AE10F9"/>
<stop offset="1" stop-color="#F6C4ED"/>
</linearGradient>
<linearGradient id="paint5_linear_503_57" x1="-156.217" y1="625.487" x2="2069.75" y2="1155.99" gradientUnits="userSpaceOnUse">
<stop stop-color="#AE10F9"/>
<stop offset="1" stop-color="#F6C4ED"/>
</linearGradient>
<linearGradient id="paint6_linear_503_57" x1="-151.255" y1="498.368" x2="1984.67" y2="1276.51" gradientUnits="userSpaceOnUse">
<stop stop-color="#AE10F9"/>
<stop offset="1" stop-color="#F6C4ED"/>
</linearGradient>
<linearGradient id="paint7_linear_503_57" x1="-134.308" y1="374.725" x2="1881.97" y2="1381.26" gradientUnits="userSpaceOnUse">
<stop stop-color="#AE10F9"/>
<stop offset="1" stop-color="#F6C4ED"/>
</linearGradient>
<linearGradient id="paint8_linear_503_57" x1="-105.841" y1="255.655" x2="1766.5" y2="1467.7" gradientUnits="userSpaceOnUse">
<stop stop-color="#AE10F9"/>
<stop offset="1" stop-color="#F6C4ED"/>
</linearGradient>
<linearGradient id="paint9_linear_503_57" x1="-66.4587" y1="142.205" x2="1643.18" y2="1534.92" gradientUnits="userSpaceOnUse">
<stop stop-color="#AE10F9"/>
<stop offset="1" stop-color="#F6C4ED"/>
</linearGradient>
<linearGradient id="paint10_linear_503_57" x1="-16.8811" y1="35.3617" x2="1516.53" y2="1583.44" gradientUnits="userSpaceOnUse">
<stop stop-color="#AE10F9"/>
<stop offset="1" stop-color="#F6C4ED"/>
</linearGradient>
<linearGradient id="paint11_linear_503_57" x1="42.0639" y1="-63.9568" x2="1390.25" y2="1614.88" gradientUnits="userSpaceOnUse">
<stop stop-color="#AE10F9"/>
<stop offset="1" stop-color="#F6C4ED"/>
</linearGradient>
<linearGradient id="paint12_linear_503_57" x1="109.444" y1="-154.921" x2="1267.08" y2="1631.6" gradientUnits="userSpaceOnUse">
<stop stop-color="#AE10F9"/>
<stop offset="1" stop-color="#F6C4ED"/>
</linearGradient>
<linearGradient id="paint13_linear_503_57" x1="184.235" y1="-236.793" x2="1148.71" y2="1636.25" gradientUnits="userSpaceOnUse">
<stop stop-color="#AE10F9"/>
<stop offset="1" stop-color="#F6C4ED"/>
</linearGradient>
<linearGradient id="paint14_linear_503_57" x1="265.326" y1="-308.925" x2="1035.85" y2="1631.52" gradientUnits="userSpaceOnUse">
<stop stop-color="#AE10F9"/>
<stop offset="1" stop-color="#F6C4ED"/>
</linearGradient>
<linearGradient id="paint15_linear_503_57" x1="351.544" y1="-370.789" x2="928.407" y2="1619.85" gradientUnits="userSpaceOnUse">
<stop stop-color="#AE10F9"/>
<stop offset="1" stop-color="#F6C4ED"/>
</linearGradient>
<linearGradient id="paint16_linear_503_57" x1="441.659" y1="-421.96" x2="825.596" y2="1603.3" gradientUnits="userSpaceOnUse">
<stop stop-color="#AE10F9"/>
<stop offset="1" stop-color="#F6C4ED"/>
</linearGradient>
<linearGradient id="paint17_linear_503_57" x1="534.395" y1="-462.136" x2="726.142" y2="1583.39" gradientUnits="userSpaceOnUse">
<stop stop-color="#AE10F9"/>
<stop offset="1" stop-color="#F6C4ED"/>
</linearGradient>
<linearGradient id="paint18_linear_503_57" x1="628.447" y1="-491.13" x2="628.447" y2="1561.07" gradientUnits="userSpaceOnUse">
<stop stop-color="#AE10F9"/>
<stop offset="1" stop-color="#F6C4ED"/>
</linearGradient>
<clipPath id="clip0_503_57">
<rect width="1920" height="1080" fill="white"/>
</clipPath>
</defs>
</svg>
