<svg width="805" height="951" viewBox="0 0 805 951" fill="none" xmlns="http://www.w3.org/2000/svg">
<g clip-path="url(#clip0_504_22)">
<g filter="url(#filter0_bii_504_22)">
<rect width="335.043" height="531.536" rx="19.3145" transform="matrix(0.285354 -0.958422 0.824126 0.566406 0 321.112)" fill="#070707" fill-opacity="0.7"/>
<rect width="335.043" height="531.536" rx="19.3145" transform="matrix(0.285354 -0.958422 0.824126 0.566406 0 321.112)" fill="url(#paint0_radial_504_22)"/>
</g>
<rect opacity="0.48" width="69.5323" height="69.5323" rx="34.7662" transform="matrix(0.824126 0.566406 -0.285354 0.958422 410.637 254.424)" fill="#3A3A3A"/>
<rect opacity="0.7" width="69.5323" height="69.5323" rx="34.7662" transform="matrix(0.824126 0.566406 -0.285354 0.958422 445.231 278.2)" fill="#040404"/>
<g filter="url(#filter1_i_504_22)">
<rect width="70.5624" height="50.4753" rx="9.01345" transform="matrix(0.824126 0.566406 -0.285354 0.958422 114.359 142.671)" fill="url(#paint1_linear_504_22)"/>
</g>
<path d="M109.307 159.369L129.082 172.96C131.665 169.349 137.929 162.554 142.317 164.265C143.643 165.918 146.512 170.558 147.372 175.893M104.69 174.877L124.465 188.467C122.178 196.147 126.399 205.809 128.795 209.68C134.302 211.21 140.796 204.831 143.356 201.451L162.909 214.89M166.427 203.074L146.873 189.635C146.564 187.1 146.65 181.802 149.475 180.897" stroke="url(#paint2_linear_504_22)" stroke-width="0.772581"/>
<path d="M184.538 217.812C184.804 219.779 184.707 224.113 182.186 225.71M190.052 218.182C190.415 221.256 190.115 228.275 186.01 231.757M195.072 218.065C195.509 222.181 194.981 231.768 189.377 237.193M200.227 218.783C200.881 223.742 200.379 235.448 193.136 242.601" stroke="white" stroke-width="2.8328" stroke-linecap="round" stroke-linejoin="round"/>
<path d="M72.1729 322.165L66.5741 318.317L70.2393 306.007L67.5597 304.165L63.1265 319.055L71.4048 324.745L72.1729 322.165ZM79.6977 312.508L77.0181 310.666L74.1518 320.293C73.1748 323.575 74.5963 327.237 77.8793 329.493C81.1533 331.743 83.9021 330.947 84.879 327.666L87.7454 318.039L85.0658 316.197L82.2916 325.515C81.7232 327.424 80.3843 328.008 78.6719 326.831C76.9506 325.648 76.3552 323.734 76.9235 321.826L79.6977 312.508ZM91.0377 338.537C94.1787 340.695 96.9939 340.107 98.2849 336.992L95.6762 335.199C94.867 336.768 93.3998 337.065 91.8115 335.973C89.7619 334.565 89.0591 331.72 90.0053 328.542C90.9393 325.405 92.8304 324.33 94.8534 325.721C96.415 326.794 97.2653 328.82 96.97 330.817L99.5786 332.61C100.367 329.137 98.7003 325.257 95.6214 323.141C91.9126 320.592 88.698 321.876 87.2694 326.674C85.8378 331.482 87.3111 335.975 91.0377 338.537ZM103.737 346.967L107.406 334.646L111.115 337.195L111.88 334.626L101.791 327.692L101.026 330.261L104.726 332.804L101.058 345.125L103.737 346.967ZM115.574 355.101L118.422 357.059L118.401 339.108L115.251 336.943L106.373 348.778L109.123 350.668L111.175 347.727L115.673 350.819L115.574 355.101ZM115.903 340.821L115.965 340.864L115.791 348.091L112.446 345.792L115.903 340.821ZM128.782 361.071L123.183 357.223L126.848 344.913L124.168 343.072L119.735 357.961L128.014 363.651L128.782 361.071ZM132.281 366.584L133.636 362.034L135.332 361.185L137.277 370.018L140.48 372.219L137.881 360.451L144.585 357.103L141.604 355.054L134.773 358.539L134.693 358.484L136.715 351.694L134.035 349.853L129.602 364.743L132.281 366.584ZM142.305 368.352C141.549 371.213 143.077 374.302 146.129 376.4C149.332 378.601 151.84 378.112 152.706 375.202C153.379 372.943 152.577 370.862 150.058 368.373L148.796 367.12C147.392 365.733 146.94 364.738 147.213 363.82C147.539 362.726 148.641 362.613 149.963 363.522C151.312 364.449 152.034 365.865 151.745 367.195L154.274 368.933C155.043 366.168 153.703 363.059 150.713 361.004C147.865 359.047 145.286 359.45 144.475 362.174C143.815 364.393 144.642 366.677 147.022 369.021L148.279 370.257C149.771 371.743 150.208 372.715 149.917 373.695C149.591 374.789 148.375 374.923 146.947 373.941C145.492 372.941 144.63 371.454 144.833 370.09L142.305 368.352Z" fill="white"/>
</g>
<g clip-path="url(#clip1_504_22)">
<g filter="url(#filter2_bii_504_22)">
<rect width="335.043" height="531.536" rx="19.3145" transform="matrix(-0.475931 -0.879483 0.760406 -0.649448 400.503 950.962)" fill="#070707" fill-opacity="0.7"/>
<rect width="335.043" height="531.536" rx="19.3145" transform="matrix(-0.475931 -0.879483 0.760406 -0.649448 400.503 950.962)" fill="url(#paint3_radial_504_22)"/>
</g>
<rect opacity="0.48" width="69.5323" height="69.5323" rx="34.7662" transform="matrix(0.760406 -0.649448 0.475931 0.879483 555.991 429.533)" fill="#3A3A3A"/>
<rect opacity="0.7" width="69.5323" height="69.5323" rx="34.7662" transform="matrix(0.760406 -0.649448 0.475931 0.879483 587.911 402.271)" fill="#040404"/>
<g filter="url(#filter3_i_504_22)">
<rect width="70.5624" height="50.4753" rx="9.01345" transform="matrix(0.760406 -0.649448 0.475931 0.879483 341.445 715.104)" fill="url(#paint4_linear_504_22)"/>
</g>
<path d="M349.698 730.522L367.944 714.938C366.878 709.848 365.551 698.619 368.764 694.421C370.463 693.796 374.818 693.049 378.649 695.061M357.399 744.752L375.644 729.169C379.458 736.216 387.681 736.723 391.316 736.095C394.954 730.479 394.004 719.213 393.075 714.282L411.117 698.873M405.249 688.03L387.207 703.44C385.435 702.367 382.085 699.261 382.868 695.421" stroke="url(#paint5_linear_504_22)" stroke-width="0.772581"/>
<path d="M423.426 675.057C424.814 675.859 427.542 678.43 427.348 682.305M426.325 668.773C428.468 670.088 432.817 674.421 433.066 681.23M428.672 662.794C431.518 664.613 437.402 670.671 438.171 680.347M431.62 657.13C435.111 659.171 442.364 666.4 443.448 678.986" stroke="white" stroke-width="2.8328" stroke-linecap="round" stroke-linejoin="round"/>
<path d="M436.01 866.559L430.844 870.971L424.731 859.675L422.259 861.786L429.653 875.45L437.291 868.926L436.01 866.559ZM433.458 852.221L430.986 854.333L435.767 863.167C437.396 866.178 440.427 866.58 443.456 863.993C446.477 861.413 447.294 857.725 445.664 854.714L440.884 845.879L438.411 847.991L443.038 856.541C443.986 858.293 443.714 860.201 442.134 861.55C440.546 862.907 439.033 862.523 438.085 860.771L433.458 852.221ZM455.597 853.624C458.495 851.149 459.477 847.499 458.105 844.213L455.698 846.268C456.313 848.111 455.795 850.008 454.329 851.259C452.438 852.874 450.277 852.089 448.699 849.173C447.141 846.294 447.366 843.458 449.233 841.864C450.674 840.633 452.381 840.78 453.518 842.261L455.925 840.205C454.081 837.307 450.793 837.07 447.952 839.496C444.53 842.419 443.8 846.933 446.183 851.336C448.571 855.748 452.158 856.561 455.597 853.624ZM467.124 843.447L461.006 832.141L464.428 829.218L463.152 826.86L453.843 834.811L455.119 837.168L458.533 834.253L464.651 845.558L467.124 843.447ZM478.045 834.119L480.673 831.875L469.169 821.721L466.263 824.203L469.555 841.37L472.093 839.202L471.2 835.119L475.351 831.574L478.045 834.119ZM469.061 825.635L469.118 825.586L473.661 829.889L470.574 832.525L469.061 825.635ZM488.242 821.949L483.076 826.361L476.963 815.065L474.49 817.176L481.885 830.84L489.523 824.316L488.242 821.949ZM493.461 820.953L491.201 816.777L491.476 814.299L498.07 817.016L501.025 814.492L492.236 810.881L493.328 801.087L490.578 803.437L489.512 813.457L489.438 813.52L486.067 807.289L483.594 809.401L490.988 823.064L493.461 820.953ZM499.43 810.15C500.897 812.663 503.612 812.615 506.429 810.209C509.384 807.685 510.281 804.454 508.836 801.784C507.714 799.711 505.995 799.476 503.186 801.031L501.774 801.807C500.208 802.674 499.353 802.643 498.897 801.8C498.354 800.796 498.814 799.434 500.034 798.392C501.278 797.329 502.533 797.282 503.246 798.377L505.579 796.384C504.18 793.91 501.543 793.725 498.784 796.082C496.156 798.326 495.169 801.592 496.522 804.091C497.624 806.127 499.485 806.448 502.135 804.974L503.533 804.195C505.205 803.28 506.038 803.316 506.525 804.215C507.068 805.219 506.567 806.727 505.249 807.852C503.906 808.999 502.539 809.17 501.763 808.158L499.43 810.15Z" fill="white"/>
</g>
<defs>
<filter id="filter0_bii_504_22" x="-59.8021" y="-56.4362" width="653.262" height="735.05" filterUnits="userSpaceOnUse" color-interpolation-filters="sRGB">
<feFlood flood-opacity="0" result="BackgroundImageFix"/>
<feGaussianBlur in="BackgroundImageFix" stdDeviation="32.1909"/>
<feComposite in2="SourceAlpha" operator="in" result="effect1_backgroundBlur_504_22"/>
<feBlend mode="normal" in="SourceGraphic" in2="effect1_backgroundBlur_504_22" result="shape"/>
<feColorMatrix in="SourceAlpha" type="matrix" values="0 0 0 0 0 0 0 0 0 0 0 0 0 0 0 0 0 0 127 0" result="hardAlpha"/>
<feOffset dx="-0.515054" dy="-0.515054"/>
<feGaussianBlur stdDeviation="0.386291"/>
<feComposite in2="hardAlpha" operator="arithmetic" k2="-1" k3="1"/>
<feColorMatrix type="matrix" values="0 0 0 0 0 0 0 0 0 0 0 0 0 0 0 0 0 0 0.36 0"/>
<feBlend mode="normal" in2="shape" result="effect2_innerShadow_504_22"/>
<feColorMatrix in="SourceAlpha" type="matrix" values="0 0 0 0 0 0 0 0 0 0 0 0 0 0 0 0 0 0 127 0" result="hardAlpha"/>
<feOffset dx="1.28764" dy="1.03011"/>
<feGaussianBlur stdDeviation="0.515054"/>
<feComposite in2="hardAlpha" operator="arithmetic" k2="-1" k3="1"/>
<feColorMatrix type="matrix" values="0 0 0 0 1 0 0 0 0 1 0 0 0 0 1 0 0 0 0.25 0"/>
<feBlend mode="normal" in2="effect2_innerShadow_504_22" result="effect3_innerShadow_504_22"/>
</filter>
<filter id="filter1_i_504_22" x="102.093" y="146.379" width="68.2812" height="80.9279" filterUnits="userSpaceOnUse" color-interpolation-filters="sRGB">
<feFlood flood-opacity="0" result="BackgroundImageFix"/>
<feBlend mode="normal" in="SourceGraphic" in2="BackgroundImageFix" result="shape"/>
<feColorMatrix in="SourceAlpha" type="matrix" values="0 0 0 0 0 0 0 0 0 0 0 0 0 0 0 0 0 0 127 0" result="hardAlpha"/>
<feOffset dx="-0.772581" dy="-0.772581"/>
<feComposite in2="hardAlpha" operator="arithmetic" k2="-1" k3="1"/>
<feColorMatrix type="matrix" values="0 0 0 0 0 0 0 0 0 0 0 0 0 0 0 0 0 0 0.25 0"/>
<feBlend mode="normal" in2="shape" result="effect1_innerShadow_504_22"/>
</filter>
<filter id="filter2_bii_504_22" x="183.214" y="255.124" width="679.303" height="751.807" filterUnits="userSpaceOnUse" color-interpolation-filters="sRGB">
<feFlood flood-opacity="0" result="BackgroundImageFix"/>
<feGaussianBlur in="BackgroundImageFix" stdDeviation="32.1909"/>
<feComposite in2="SourceAlpha" operator="in" result="effect1_backgroundBlur_504_22"/>
<feBlend mode="normal" in="SourceGraphic" in2="effect1_backgroundBlur_504_22" result="shape"/>
<feColorMatrix in="SourceAlpha" type="matrix" values="0 0 0 0 0 0 0 0 0 0 0 0 0 0 0 0 0 0 127 0" result="hardAlpha"/>
<feOffset dx="-0.515054" dy="-0.515054"/>
<feGaussianBlur stdDeviation="0.386291"/>
<feComposite in2="hardAlpha" operator="arithmetic" k2="-1" k3="1"/>
<feColorMatrix type="matrix" values="0 0 0 0 0 0 0 0 0 0 0 0 0 0 0 0 0 0 0.36 0"/>
<feBlend mode="normal" in2="shape" result="effect2_innerShadow_504_22"/>
<feColorMatrix in="SourceAlpha" type="matrix" values="0 0 0 0 0 0 0 0 0 0 0 0 0 0 0 0 0 0 127 0" result="hardAlpha"/>
<feOffset dx="1.28764" dy="1.03011"/>
<feGaussianBlur stdDeviation="0.515054"/>
<feComposite in2="hardAlpha" operator="arithmetic" k2="-1" k3="1"/>
<feColorMatrix type="matrix" values="0 0 0 0 1 0 0 0 0 1 0 0 0 0 1 0 0 0 0.25 0"/>
<feBlend mode="normal" in2="effect2_innerShadow_504_22" result="effect3_innerShadow_504_22"/>
</filter>
<filter id="filter3_i_504_22" x="344.502" y="673.204" width="71.5651" height="82.3667" filterUnits="userSpaceOnUse" color-interpolation-filters="sRGB">
<feFlood flood-opacity="0" result="BackgroundImageFix"/>
<feBlend mode="normal" in="SourceGraphic" in2="BackgroundImageFix" result="shape"/>
<feColorMatrix in="SourceAlpha" type="matrix" values="0 0 0 0 0 0 0 0 0 0 0 0 0 0 0 0 0 0 127 0" result="hardAlpha"/>
<feOffset dx="-0.772581" dy="-0.772581"/>
<feComposite in2="hardAlpha" operator="arithmetic" k2="-1" k3="1"/>
<feColorMatrix type="matrix" values="0 0 0 0 0 0 0 0 0 0 0 0 0 0 0 0 0 0 0.25 0"/>
<feBlend mode="normal" in2="shape" result="effect1_innerShadow_504_22"/>
</filter>
<radialGradient id="paint0_radial_504_22" cx="0" cy="0" r="1" gradientUnits="userSpaceOnUse" gradientTransform="translate(-10.4298 -7.46826) rotate(60.0023) scale(582.825 367.372)">
<stop stop-color="white" stop-opacity="0.3"/>
<stop offset="1" stop-color="white" stop-opacity="0"/>
</radialGradient>
<linearGradient id="paint1_linear_504_22" x1="0" y1="0" x2="63.2229" y2="50.4753" gradientUnits="userSpaceOnUse">
<stop stop-color="#ABABAB"/>
<stop offset="0.3125" stop-color="white"/>
<stop offset="0.630208" stop-color="#BDBDBD"/>
<stop offset="1" stop-color="#5E5E5E"/>
</linearGradient>
<linearGradient id="paint2_linear_504_22" x1="115.673" y1="146.845" x2="162.565" y2="221.227" gradientUnits="userSpaceOnUse">
<stop stop-color="#7D7D7D"/>
<stop offset="0.494792" stop-color="white"/>
<stop offset="1" stop-color="#1C1C1C"/>
</linearGradient>
<radialGradient id="paint3_radial_504_22" cx="0" cy="0" r="1" gradientUnits="userSpaceOnUse" gradientTransform="translate(-10.4298 -7.46826) rotate(60.0023) scale(582.825 367.372)">
<stop stop-color="white" stop-opacity="0.3"/>
<stop offset="1" stop-color="white" stop-opacity="0"/>
</radialGradient>
<linearGradient id="paint4_linear_504_22" x1="0" y1="0" x2="63.2229" y2="50.4753" gradientUnits="userSpaceOnUse">
<stop stop-color="#ABABAB"/>
<stop offset="0.3125" stop-color="white"/>
<stop offset="0.630208" stop-color="#BDBDBD"/>
<stop offset="1" stop-color="#5E5E5E"/>
</linearGradient>
<linearGradient id="paint5_linear_504_22" x1="344.752" y1="715.923" x2="414.153" y2="719.494" gradientUnits="userSpaceOnUse">
<stop stop-color="#7D7D7D"/>
<stop offset="0.494792" stop-color="white"/>
<stop offset="1" stop-color="#1C1C1C"/>
</linearGradient>
<clipPath id="clip0_504_22">
<rect width="531.536" height="335.043" fill="white" transform="matrix(0.824126 0.566406 -0.285354 0.958422 95.6057 0)"/>
</clipPath>
<clipPath id="clip1_504_22">
<rect width="531.536" height="335.043" fill="white" transform="matrix(0.760406 -0.649448 0.475931 0.879483 241.045 656.298)"/>
</clipPath>
</defs>
</svg>
