<svg width="300" height="300" viewBox="0 0 300 300" fill="none" xmlns="http://www.w3.org/2000/svg">
<path fill-rule="evenodd" clip-rule="evenodd" d="M149.025 24.0516C115.363 24.0516 83.0798 37.4238 59.2771 61.2265C35.4744 85.0292 22.1022 117.313 22.1022 150.975C22.1022 184.637 35.4744 216.92 59.2771 240.723C83.0798 264.526 115.363 277.898 149.025 277.898C182.687 277.898 214.971 264.526 238.773 240.723C262.576 216.92 275.948 184.637 275.948 150.975C275.948 117.313 262.576 85.0292 238.773 61.2265C214.971 37.4238 182.687 24.0516 149.025 24.0516ZM42.9638 44.9132C56.8452 30.7742 73.3904 19.5256 91.6437 11.817C109.897 4.10841 129.497 0.0926277 149.311 0.00158361C169.125 -0.0894605 188.761 3.74604 207.084 11.2866C225.407 18.8271 242.055 29.9232 256.066 43.934C270.077 57.9448 281.173 74.5926 288.713 92.916C296.254 111.239 300.089 130.875 299.998 150.689C299.907 170.503 295.892 190.103 288.183 208.356C280.474 226.61 269.226 243.155 255.087 257.036C226.869 284.74 188.854 300.18 149.311 299.998C109.767 299.817 71.8956 284.028 43.934 256.066C15.9724 228.104 0.183284 190.233 0.00158564 150.689C-0.180113 111.146 15.2603 73.1306 42.9638 44.9132ZM149.025 93.2824C152.085 93.2824 155.02 94.4981 157.184 96.6619C159.348 98.8258 160.564 101.761 160.564 104.821V162.513C160.564 165.573 159.348 168.508 157.184 170.672C155.02 172.836 152.085 174.052 149.025 174.052C145.965 174.052 143.03 172.836 140.866 170.672C138.702 168.508 137.487 165.573 137.487 162.513V104.821C137.487 101.761 138.702 98.8258 140.866 96.6619C143.03 94.4981 145.965 93.2824 149.025 93.2824ZM137.487 208.667C137.487 205.607 138.702 202.672 140.866 200.508C143.03 198.344 145.965 197.129 149.025 197.129H149.148C152.209 197.129 155.143 198.344 157.307 200.508C159.471 202.672 160.687 205.607 160.687 208.667V208.79C160.687 211.85 159.471 214.785 157.307 216.949C155.143 219.113 152.209 220.329 149.148 220.329H149.025C145.965 220.329 143.03 219.113 140.866 216.949C138.702 214.785 137.487 211.85 137.487 208.79V208.667Z" fill="#FF806F"/>
</svg>
