<svg width="2000" height="2000" fill="none" xmlns="http://www.w3.org/2000/svg"><rect width="2000" height="2000" rx="1000" fill="#fff"/><path d="M1540 607.143c21.21 0 38.57 16.071 38.57 35.714v71.429H421.429v-71.429c0-19.643 17.357-35.714 38.571-35.714h1080Zm38.57 321.428v428.569c0 19.65-17.36 35.72-38.57 35.72H460c-21.214 0-38.571-16.07-38.571-35.72V928.571H1578.57ZM460 500c-85.098 0-154.286 64.063-154.286 142.857v714.283c0 78.8 69.188 142.86 154.286 142.86h1080c85.1 0 154.29-64.06 154.29-142.86V642.857C1694.29 564.063 1625.1 500 1540 500H460Zm135 678.57c-32.062 0-57.857 23.89-57.857 53.57 0 29.69 25.795 53.57 57.857 53.57h115.714c32.063 0 57.858-23.88 57.858-53.57 0-29.68-25.795-53.57-57.858-53.57H595Zm308.572 0c-32.063 0-57.858 23.89-57.858 53.57 0 29.69 25.795 53.57 57.858 53.57h269.998c32.06 0 57.86-23.88 57.86-53.57 0-29.68-25.8-53.57-57.86-53.57H903.572Z" fill="#000"/></svg>