<svg width="256" height="256" viewBox="0 0 256 256" fill="none" xmlns="http://www.w3.org/2000/svg">
<path fill-rule="evenodd" clip-rule="evenodd" d="M152.829 1.53443C160.127 -1.65331 169.423 0.286112 173.592 5.86626C201.383 43.0635 216 85.1611 216 128C216 170.839 201.383 212.937 173.592 250.134C169.423 255.714 160.127 257.653 152.829 254.466C145.531 251.278 142.995 244.17 147.164 238.59C172.328 204.909 185.564 166.79 185.564 128C185.564 89.2102 172.328 51.0915 147.164 17.4101C142.995 11.8299 145.531 4.72217 152.829 1.53443ZM100.158 25.9775C107.451 22.7829 116.75 24.7137 120.928 30.2899C143.21 60.0293 154.946 93.7032 154.974 127.977C155.003 162.251 143.322 195.936 121.09 225.697C116.921 231.278 107.625 233.217 100.327 230.03C93.0294 226.842 90.4925 219.735 94.6612 214.154C114.264 187.913 124.563 158.212 124.538 127.992C124.513 97.7716 114.165 68.0805 94.5186 41.8584C90.3406 36.2822 92.8657 29.172 100.158 25.9775ZM47.7282 50.4984C55.0437 47.3343 64.3286 49.3039 68.4666 54.8975C84.9632 77.1967 93.633 102.38 93.633 128C93.633 153.62 84.9632 178.803 68.4666 201.103C64.3286 206.696 55.0437 208.666 47.7282 205.502C40.4127 202.338 37.8369 195.238 41.9749 189.644C55.8859 170.84 63.1967 149.604 63.1967 128C63.1967 106.396 55.8859 85.1596 41.9749 66.3555C37.8369 60.7619 40.4127 53.6624 47.7282 50.4984Z" fill="white"/>
</svg>
