<svg width="792" height="256" viewBox="0 0 792 256" fill="none" xmlns="http://www.w3.org/2000/svg">
<path d="M290 256C360.692 256 418 198.692 418 128C418 57.3076 360.692 0 290 0C219.308 0 162 57.3076 162 128C162 198.692 219.308 256 290 256Z" fill="white" fill-opacity="0.5"/>
<path d="M128 256C198.692 256 256 198.692 256 128C256 57.3076 198.692 0 128 0C57.3076 0 0 57.3076 0 128C0 198.692 57.3076 256 128 256Z" fill="white" fill-opacity="0.9"/>
<path d="M486.167 150.501V130.045C486.167 122.201 481.393 117.088 473.209 117.088C469.118 117.088 464.685 118.452 461.616 122.885C459.231 119.134 455.822 117.088 450.707 117.088C447.296 117.088 443.889 118.11 441.16 121.861V117.77H434V150.501H441.16V132.43C441.16 126.636 444.229 123.907 449.003 123.907C453.775 123.907 456.163 126.976 456.163 132.43V150.501H463.323V132.43C463.323 126.636 466.731 123.907 471.164 123.907C475.938 123.907 478.324 126.976 478.324 132.43V150.501H486.167ZM592.202 117.77H580.611V107.883H573.451V117.77H566.973V124.247H573.449V139.25C573.449 146.752 576.518 151.183 584.702 151.183C587.771 151.183 591.178 150.161 593.567 148.797L591.52 142.659C589.475 144.023 587.089 144.365 585.384 144.365C581.974 144.365 580.611 142.319 580.611 138.909V124.247H592.202V117.77ZM652.893 117.087C648.802 117.087 646.074 119.134 644.369 121.861V117.77H637.209V150.501H644.369V132.09C644.369 126.636 646.755 123.567 651.187 123.567C652.551 123.567 654.256 123.908 655.62 124.248L657.665 117.43C656.302 117.088 654.256 117.088 652.893 117.088M561.176 120.499C557.765 118.112 552.993 117.09 547.878 117.09C539.696 117.09 534.242 121.181 534.242 127.659C534.242 133.115 538.333 136.183 545.493 137.206L548.902 137.548C552.653 138.228 554.698 139.252 554.698 140.957C554.698 143.343 551.971 145.048 547.196 145.048C542.424 145.048 538.673 143.343 536.285 141.639L532.876 147.094C536.627 149.821 541.742 151.185 546.855 151.185C556.402 151.185 561.858 146.753 561.858 140.615C561.858 134.819 557.425 131.75 550.605 130.728L547.196 130.386C544.127 130.045 541.742 129.364 541.742 127.319C541.742 124.932 544.127 123.568 547.878 123.568C551.971 123.568 556.062 125.272 558.107 126.295L561.176 120.499ZM751.429 117.09C747.336 117.09 744.609 119.135 742.904 121.863V117.772H735.744V150.503H742.904V132.092C742.904 126.637 745.291 123.568 749.722 123.568C751.087 123.568 752.792 123.91 754.156 124.25L756.202 117.432C754.838 117.09 752.792 117.09 751.429 117.09ZM660.053 134.137C660.053 144.025 666.871 151.185 677.442 151.185C682.214 151.185 685.624 150.163 689.033 147.435L685.624 141.639C682.896 143.684 680.169 144.706 677.1 144.706C671.304 144.706 667.213 140.615 667.213 134.137C667.213 128.001 671.304 123.908 677.1 123.568C680.169 123.568 682.896 124.59 685.624 126.637L689.033 120.841C685.624 118.112 682.214 117.09 677.442 117.09C666.871 117.09 660.053 124.25 660.053 134.137ZM726.198 134.137V117.772H719.038V121.863C716.651 118.795 713.242 117.09 708.809 117.09C699.603 117.09 692.443 124.25 692.443 134.137C692.443 144.025 699.603 151.185 708.809 151.185C713.582 151.185 716.992 149.481 719.038 146.412V150.503H726.198V134.137ZM699.944 134.137C699.944 128.341 703.694 123.568 709.831 123.568C715.627 123.568 719.72 128.001 719.72 134.137C719.72 139.934 715.627 144.706 709.831 144.706C703.694 144.365 699.944 139.934 699.944 134.137ZM614.365 117.09C604.818 117.09 597.998 123.908 597.998 134.137C597.998 144.366 604.816 151.185 614.705 151.185C619.478 151.185 624.253 149.821 628.003 146.753L624.593 141.639C621.865 143.684 618.456 145.048 615.047 145.048C610.614 145.048 606.182 143.003 605.158 137.205H629.367V134.479C629.709 123.908 623.572 117.09 614.365 117.09ZM614.364 123.226C618.795 123.226 621.865 125.955 622.546 131.07H605.498C606.18 126.637 609.249 123.226 614.364 123.226ZM792 134.137V104.815H784.84V121.863C782.453 118.795 779.044 117.09 774.611 117.09C765.405 117.09 758.245 124.25 758.245 134.137C758.245 144.025 765.405 151.185 774.611 151.185C779.385 151.185 782.794 149.481 784.84 146.412V150.503H792V134.137ZM765.747 134.137C765.747 128.341 769.496 123.568 775.634 123.568C781.431 123.568 785.522 128.001 785.522 134.137C785.522 139.934 781.431 144.706 775.634 144.706C769.496 144.365 765.747 139.934 765.747 134.137ZM526.397 134.137V117.772H519.237V121.863C516.849 118.795 513.44 117.09 509.008 117.09C499.802 117.09 492.642 124.25 492.642 134.137C492.642 144.025 499.802 151.185 509.008 151.185C513.782 151.185 517.191 149.481 519.237 146.412V150.503H526.397V134.137ZM499.802 134.137C499.802 128.341 503.553 123.568 509.689 123.568C515.486 123.568 519.578 128.001 519.578 134.137C519.578 139.934 515.486 144.706 509.689 144.706C503.553 144.365 499.802 139.934 499.802 134.137Z" fill="white" fill-opacity="0.9"/>
</svg>
