<svg width="1622" height="1030" viewBox="0 0 1622 1030" fill="none" xmlns="http://www.w3.org/2000/svg">
<path fill-rule="evenodd" clip-rule="evenodd" d="M1551.47 198.253C1551.41 198.356 1551.28 198.567 1551 199C1550.46 199.844 1550.46 199.843 1550.46 199.841L1550.45 199.833L1550.39 199.799L1550.18 199.667C1550 199.549 1549.72 199.374 1549.36 199.143C1548.63 198.68 1547.54 197.995 1546.12 197.103C1543.28 195.32 1539.11 192.711 1533.79 189.41C1523.14 182.809 1507.88 173.441 1489.41 162.373C1452.46 140.238 1402.7 111.31 1351.41 84.1336C1300.11 56.9525 1247.32 31.5432 1204.31 16.4278C1182.8 8.86798 1163.79 3.90321 1148.67 2.56054C1133.48 1.21188 1122.54 3.54545 1116.75 10.1585C1113.99 13.3104 1113.39 17.7131 1114.96 23.4804C1116.54 29.2606 1120.28 36.2404 1125.94 44.2897C1137.26 60.3759 1156.1 80.4649 1180.03 103.356C1221.26 142.802 1277.45 190.43 1335.95 240.014C1345.33 247.964 1354.76 255.964 1364.21 263.988C1432.55 322.045 1501.26 381.389 1550.48 432.226C1575.08 457.641 1594.86 480.971 1607.28 500.982C1613.49 510.988 1617.89 520.203 1620.12 528.464C1622.36 536.725 1622.44 544.105 1619.93 550.372C1617.38 556.718 1611.94 561.132 1604.17 563.916C1596.42 566.693 1586.28 567.882 1574.14 567.748C1549.86 567.479 1517.31 561.906 1479.28 552.769C1403.21 534.491 1304.98 501.881 1206.68 468.572C1195.82 464.892 1184.96 461.203 1174.12 457.524C1086.88 427.896 1001.5 398.901 933.468 380.105C895.223 369.538 862.513 362.209 838.06 359.794C825.829 358.586 815.726 358.614 808.053 360.051C800.36 361.493 795.305 364.311 792.865 368.503C790.464 372.627 790.966 378.057 794.483 384.883C797.992 391.692 804.393 399.662 813.336 408.641C831.212 426.588 859.032 448.358 893.468 472.675C960.072 519.709 1051.25 576.153 1142.62 632.715L1151.9 638.462C1246.33 696.925 1340.08 755.18 1406.13 802.916C1439.15 826.778 1465.3 848.052 1481.16 865.44C1489.08 874.125 1494.5 881.918 1496.89 888.643C1499.3 895.419 1498.65 901.26 1494.21 905.707C1485.69 914.224 1470.21 917.039 1449.9 915.921C1429.53 914.799 1403.98 909.695 1374.98 902.006C1323.61 888.385 1261.25 866.605 1197.36 844.288C1189.11 841.406 1180.83 838.515 1172.55 835.632C1100.1 810.41 1027.25 785.759 967.488 772.594C937.606 766.011 911.052 762.313 889.487 762.835C867.891 763.357 851.504 768.107 841.718 778.196C836.814 783.253 834.026 788.733 833.048 794.581C832.069 800.439 832.894 806.739 835.332 813.44C840.218 826.873 851.523 841.765 867.31 857.615C898.867 889.296 947.961 924.449 998.006 958.989C1006.62 964.932 1015.25 970.856 1023.83 976.74C1065.08 1005.03 1105 1032.41 1134.07 1056.5C1151.62 1071.05 1165.3 1084.47 1172.92 1096.23C1176.74 1102.11 1179.09 1107.65 1179.6 1112.76C1180.11 1117.92 1178.76 1122.59 1175.26 1126.65C1171.83 1130.63 1165.76 1132.18 1157.73 1131.9C1149.65 1131.62 1139.33 1129.49 1127.06 1125.78C1102.51 1118.37 1069.93 1104.59 1031.53 1086.39C964.91 1054.81 880.597 1009.83 789.881 961.439C775.993 954.03 761.955 946.542 747.807 939.009C641.231 882.265 528.423 823.001 426.626 776.478C327.223 731.048 238.448 697.828 176.263 690.902C201.15 705.795 227.573 724.729 242.642 744.929C250.579 755.57 255.443 766.662 255.165 777.771C254.886 788.92 249.434 799.891 237.145 810.264C217.566 826.792 188.36 829.82 158.952 824.657C129.515 819.489 99.6415 806.08 78.5058 789.41C67.9377 781.075 59.5095 771.89 54.4284 762.465C49.3422 753.03 47.5853 743.3 50.4826 733.969C53.3769 724.647 60.8595 715.907 73.8757 708.325C86.8889 700.745 105.503 694.279 130.815 689.517C141.514 687.505 153.808 687.089 167.495 688.083C153.694 680.164 140.772 673.608 131.041 668.921C125.728 666.362 121.367 664.361 118.336 663C116.821 662.319 115.638 661.799 114.834 661.449C114.433 661.274 114.126 661.142 113.92 661.053C113.817 661.009 113.739 660.976 113.687 660.954L113.629 660.929L113.614 660.923L113.562 660.9L113.516 660.875C55.1711 628.572 27.6454 599.969 14.7152 579.344C8.24859 569.029 5.43638 560.715 4.24718 554.944C3.65279 552.06 3.46464 549.815 3.4271 548.277C3.40833 547.509 3.4272 546.917 3.45169 546.511C3.46393 546.309 3.47758 546.152 3.48861 546.043C3.49413 545.989 3.499 545.946 3.50271 545.916L3.50736 545.879L3.50891 545.867L3.50948 545.863C3.50948 545.863 3.5099 545.86 4.50004 546C5.49019 546.14 5.49045 546.138 5.49045 546.138L5.49029 546.139L5.48812 546.157C5.48599 546.174 5.4826 546.204 5.47843 546.245C5.47008 546.327 5.45864 546.456 5.44806 546.632C5.42689 546.983 5.40914 547.518 5.4265 548.229C5.46121 549.65 5.63634 551.776 6.20601 554.54C7.34491 560.067 10.0639 568.159 16.4098 578.281C29.1013 598.526 56.3148 626.913 114.439 659.1L114.472 659.114C114.525 659.137 114.604 659.171 114.709 659.215C114.918 659.305 115.228 659.439 115.633 659.615C116.443 659.968 117.633 660.491 119.155 661.175C122.201 662.542 126.578 664.551 131.909 667.119C142.526 672.233 156.935 679.567 172.153 688.47C234.887 694.333 325.756 728.179 427.457 774.659C529.316 821.211 642.174 880.501 748.747 937.244C762.899 944.779 776.941 952.269 790.831 959.679C881.552 1008.07 965.814 1053.02 1032.39 1084.58C1070.77 1102.78 1103.23 1116.5 1127.63 1123.87C1139.84 1127.55 1149.97 1129.63 1157.8 1129.9C1165.66 1130.17 1170.93 1128.61 1173.74 1125.35C1176.87 1121.72 1178.07 1117.59 1177.61 1112.96C1177.14 1108.29 1174.97 1103.06 1171.25 1097.32C1163.79 1085.82 1150.31 1072.57 1132.79 1058.04C1103.8 1034.01 1063.98 1006.7 1022.73 978.411C1014.15 972.521 1005.5 966.589 996.87 960.635C946.852 926.114 897.602 890.86 865.893 859.026C850.048 843.118 838.49 827.975 833.452 814.124C830.928 807.184 830.026 800.53 831.076 794.251C832.127 787.963 835.125 782.122 840.283 776.804C850.622 766.143 867.672 761.362 889.439 760.835C911.238 760.308 937.973 764.044 967.919 770.641C1027.81 783.835 1100.78 808.528 1173.2 833.743C1181.49 836.627 1189.77 839.518 1198.02 842.4C1261.93 864.721 1324.21 886.473 1375.49 900.072C1404.45 907.75 1429.84 912.814 1450.01 913.924C1470.26 915.039 1484.94 912.151 1492.79 904.293C1496.53 900.553 1497.24 895.604 1495.01 889.312C1492.75 882.967 1487.54 875.411 1479.68 866.788C1463.97 849.561 1437.96 828.386 1404.96 804.537C1338.98 756.852 1245.3 698.638 1150.85 640.163C1147.74 638.24 1144.64 636.317 1141.53 634.395C1050.19 577.85 958.969 521.379 892.314 474.309C857.86 449.978 829.922 428.127 811.919 410.052C802.923 401.021 796.354 392.879 792.706 385.799C789.066 378.736 788.225 372.498 791.136 367.497C794.008 362.564 799.762 359.57 807.685 358.086C815.628 356.598 825.947 356.588 838.257 357.804C862.886 360.236 895.731 367.603 934.001 378.177C1002.09 396.99 1087.53 426.006 1174.76 455.63C1185.6 459.309 1196.46 462.998 1207.32 466.678C1305.64 499.994 1403.79 532.571 1479.75 550.825C1517.74 559.953 1550.12 565.482 1574.17 565.748C1586.19 565.881 1596.07 564.696 1603.5 562.033C1610.91 559.375 1615.8 555.282 1618.07 549.628C1620.37 543.895 1620.36 536.99 1618.19 528.986C1616.03 520.982 1611.74 511.951 1605.58 502.037C1593.27 482.208 1573.61 458.999 1549.04 433.617C1499.9 382.861 1431.26 323.58 1362.92 265.512C1353.47 257.492 1344.04 249.494 1334.66 241.546C1276.17 191.967 1219.92 144.293 1178.64 104.801C1154.7 81.8945 1135.75 61.6945 1124.31 45.4408C1118.59 37.3201 1114.7 30.1173 1113.03 24.0074C1111.36 17.8846 1111.88 12.6896 1115.25 8.84151C1121.71 1.45457 1133.55 -0.789993 1148.85 0.568378C1164.21 1.93274 1183.4 6.96016 1204.97 14.541C1248.12 29.7068 1301.02 55.1725 1352.34 82.3664C1403.68 109.565 1453.47 138.512 1490.44 160.658C1508.92 171.731 1524.19 181.105 1534.85 187.711C1540.17 191.014 1544.34 193.624 1547.19 195.41C1547.93 195.876 1548.58 196.287 1549.14 196.638C1549.65 196.959 1550.08 197.231 1550.43 197.452C1550.79 197.684 1551.07 197.86 1551.26 197.978L1551.52 198.145L1551.53 198.153C1551.53 198.153 1551.53 198.155 1551.47 198.253ZM171.526 690.421C156.26 689.023 142.734 689.31 131.185 691.483C105.998 696.221 87.6269 702.63 74.8823 710.054C62.1406 717.476 55.092 725.868 52.3926 734.562C49.6961 743.247 51.283 752.415 56.1889 761.516C61.1 770.626 69.3124 779.612 79.7443 787.84C100.609 804.295 130.172 817.574 159.298 822.687C188.452 827.805 216.934 824.708 235.855 808.736C247.819 798.636 252.904 788.167 253.166 777.721C253.428 767.235 248.836 756.577 241.039 746.125C225.471 725.256 197.432 705.609 171.526 690.421Z" fill="#222222"/>
<path d="M10 544C10 546.761 7.76142 549 5 549C2.23858 549 0 546.761 0 544C0 541.239 2.23858 539 5 539C7.76142 539 10 541.239 10 544Z" fill="#222222"/>
<path d="M1566 202C1566 208.627 1560.63 214 1554 214C1547.37 214 1542 208.627 1542 202C1542 195.373 1547.37 190 1554 190C1560.63 190 1566 195.373 1566 202Z" fill="#222222"/>
<path d="M1273 710C1273 714.418 1269.42 718 1265 718C1260.58 718 1257 714.418 1257 710C1257 705.582 1260.58 702 1265 702C1269.42 702 1273 705.582 1273 710Z" fill="#222222"/>
<path d="M449 783C449 786.314 446.314 789 443 789C439.686 789 437 786.314 437 783C437 779.686 439.686 777 443 777C446.314 777 449 779.686 449 783Z" fill="#222222"/>
</svg>
