<svg width="834" height="849" viewBox="0 0 834 849" fill="none" xmlns="http://www.w3.org/2000/svg">
<path d="M328.831 52.8399C306.889 -4.24893 198.337 -32.4405 216.251 81.2285C219.188 99.8664 219.483 131.959 216.251 171.023C213.289 206.807 155.318 226.387 137.523 272.625C109.615 345.138 213.961 395.681 197.356 433.8C175.607 483.727 109.013 505.389 72.1786 532.704C37.5025 558.418 15.415 599.677 6.93414 642.096C-7.9444 716.515 19.0565 794.503 93.4352 798.383C130.669 800.325 179.775 783.697 241.443 738.752C269.016 718.658 293.328 702.097 314.936 688.707C370.551 654.242 355.599 735.765 421.73 738.752C459.412 740.455 498.768 670.075 528.56 707.616C549.745 734.31 574.055 766.698 608.772 799.997C669.741 858.474 745.969 867.084 756.751 783.625C761.84 744.227 752.346 684.313 719.778 599.443C698.937 545.131 750.777 547.045 756.751 477.447C762.724 407.848 713.88 375.751 749.238 346.946L749.946 346.369C776.896 324.415 805.64 301.001 821.337 256.029C834.859 217.29 833.567 178.921 821.337 149.439C808.248 117.886 782.632 96.5117 749.238 95.7535C715.732 94.9927 674.395 114.988 630.028 166.283C600.777 200.103 580.967 121.409 528.56 129.454C476.154 137.498 468.87 213.428 437.476 191.405C382.941 153.15 354.529 119.701 328.831 52.8399Z" stroke="#1E1B4B" stroke-width="6"/>
<path d="M434.685 364.247C431.346 355.483 415.784 357.783 414.996 367.281C414.099 378.096 419.566 392.189 418.934 403.029C417.714 423.959 410.32 429.917 395.597 440.948C390.319 444.896 386.958 451.23 385.667 457.742C383.403 469.166 387.512 481.139 398.832 481.735C404.498 482.033 411.971 479.48 421.356 472.58C425.552 469.495 429.252 466.953 432.541 464.897C446.856 455.232 460.179 462.806 465.051 467.8C468.275 471.898 471.975 476.871 477.258 481.982C486.537 490.96 500.588 489.783 499.779 479.469C498.635 464.898 473.757 410.506 499.779 401.022C511.866 396.616 511.469 386.637 509.608 382.111C507.616 377.267 503.717 373.986 498.635 373.869C493.536 373.753 485.089 382.111 480.493 384.697C463.529 394.243 448.392 399.177 434.685 364.247Z" stroke="#1E1B4B" stroke-width="6"/>
<path d="M234.401 106.098C218.502 2.61954 317.701 28.4146 337.818 80.7504C362.446 144.734 389.674 174.721 440.837 208.665C469.611 228.585 476.535 159.256 524.521 151.72C572.506 144.185 590.839 215.596 617.686 184.831C658.517 138.172 696.482 120.277 727.15 121.406C757.619 122.3 780.978 142.074 792.78 171.107C803.8 198.257 804.71 233.489 791.857 268.934C775.083 311.065 750.858 337.288 726.256 358.73C694.122 385.403 738.262 414.865 732.411 478.228C726.561 541.592 678.862 539.674 697.403 588.683C726.555 665.439 734.857 719.501 729.933 754.976C719.901 830.683 650.129 822.567 594.134 769.244C562.025 738.831 539.277 709.41 519.351 685.56C491.944 651.59 455.799 715.852 421.132 714.581C360.534 712.175 373.755 638.216 322.811 669.705C302.81 682.021 280.389 697.138 255.044 715.407C197.904 756.245 152.85 770.294 119.178 767.495C51.5611 763.672 27.0994 692.427 40.7881 624.458C48.6557 585.604 68.9491 547.834 100.74 524.26C135.594 498.414 196.859 478.167 216.758 430.855C231.896 395.684 136.844 349.137 162.13 282.6C178.214 239.971 230.857 221.594 233.592 188.549C236.569 152.58 236.672 123.115 234.401 106.098Z" stroke="#1E1B4B" stroke-width="6"/>
<path d="M253.365 132.015C239.506 39.0664 329.206 62.38 347.467 109.791C370.991 170.68 396.996 197.108 444.712 226.631C470.824 244.383 477.378 181.882 520.873 174.881C564.367 167.88 581.196 231.775 605.599 204.166C642.834 162.297 677.373 146.558 705.158 148.051C732.657 149.078 753.725 167.186 764.223 193.604C774.017 218.33 774.543 250.312 762.378 282.344C744.688 321.1 725.386 350.023 703.371 370.711C674.507 395.164 713.879 421.893 708.16 478.814C702.44 535.735 658.952 533.82 675.166 577.366C700.859 645.756 707.957 693.79 703.206 725.227C693.939 792.935 630.725 785.338 579.785 737.346C550.331 709.917 529.179 683.561 510.54 662.632C485.559 632.344 452.676 690.277 421.074 689.442C366.098 687.623 377.569 621.472 331.371 649.882C313.005 661.081 292.51 674.706 269.429 691.09C216.9 727.686 175.964 739.111 145.903 735.469C85.1469 731.714 63.2603 667.447 75.7393 606.152C82.9822 570.99 101.452 536.833 130.311 515.478C163.134 491.186 218.98 472.423 237.001 427.884C250.649 395.778 165.03 353.38 187.657 293.04C202.007 254.159 249.244 237.048 251.749 206.851C254.467 174.095 254.968 147.355 253.365 132.015Z" stroke="#1E1B4B" stroke-width="6"/>
<path d="M271.51 156.885C259.668 74.128 340.008 95.045 356.442 137.702C378.898 195.713 403.72 218.679 448.065 243.891C471.554 259.54 477.749 203.641 516.82 197.149C555.89 190.657 571.241 247.269 593.239 222.715C626.935 185.482 658.101 171.843 683.045 173.704C707.618 174.867 726.426 191.374 735.636 215.272C744.22 237.666 744.363 266.511 732.866 295.249C714.231 330.769 699.824 362.485 680.362 382.493C654.724 404.812 689.389 428.906 683.792 479.592C678.194 530.278 638.85 528.36 652.761 566.603C675.035 626.878 680.939 669.061 676.353 696.575C667.836 756.531 611.083 749.427 565.12 706.591C538.275 682.047 518.685 658.658 501.305 640.572C478.711 613.855 449.041 665.671 420.455 665.267C371.016 664.029 380.754 605.443 339.23 630.877C322.471 641 303.869 653.183 283.017 667.741C235.018 700.23 198.136 709.076 171.64 704.578C117.652 700.88 98.3068 643.356 109.595 588.512C116.225 556.915 132.899 526.247 158.871 507.033C189.714 484.209 240.228 466.862 256.399 424.937C268.578 395.78 192.26 357.378 212.262 303.016C224.9 267.743 266.805 251.836 269.083 224.378C271.545 194.717 272.446 170.605 271.51 156.885Z" stroke="#1E1B4B" stroke-width="6"/>
<path d="M290.465 181.755C280.662 109.191 351.5 127.711 366.078 165.615C387.426 220.751 411.022 240.254 451.917 261.152C472.742 274.697 478.566 225.4 513.144 219.417C547.721 213.434 561.567 262.76 581.12 241.263C611.218 208.668 638.956 197.129 661.015 199.36C682.617 200.659 699.133 215.566 707.038 236.944C714.396 257.004 714.156 282.713 703.348 308.155C683.801 340.44 674.314 374.959 657.44 394.289C635.074 414.476 664.97 435.934 659.504 480.383C654.038 524.832 618.908 522.91 630.491 555.848C649.306 608.004 654.006 644.332 649.593 667.922C641.842 720.123 591.65 713.512 550.746 675.833C526.556 654.174 508.564 633.755 492.472 618.514C472.306 595.369 445.901 641.066 420.382 641.095C376.567 640.438 384.555 589.42 347.779 611.877C332.657 620.924 315.981 631.664 297.395 644.396C254.011 672.777 221.249 679.04 198.365 673.685C151.24 670.042 134.471 619.263 144.549 570.871C150.553 542.84 165.403 515.661 188.442 498.589C217.251 477.232 262.342 461.301 276.634 421.988C287.322 395.78 220.442 361.374 237.784 312.99C248.688 281.325 285.184 266.621 287.233 241.903C289.434 215.337 290.733 193.854 290.465 181.755Z" stroke="#1E1B4B" stroke-width="6"/>
<path d="M309.412 207.795C301.647 145.588 362.98 161.669 375.701 194.734C395.938 246.87 418.305 262.867 455.744 279.404C473.906 290.816 479.358 248.232 509.441 242.771C539.525 237.31 551.864 279.242 568.971 260.849C595.47 232.964 619.779 223.552 638.952 226.146C657.582 227.578 671.806 240.851 678.407 259.661C684.539 277.343 683.916 299.859 673.799 321.948C653.346 350.925 648.774 388.167 634.488 406.774C615.393 424.784 640.521 443.558 635.188 481.67C629.855 519.783 598.94 517.862 608.197 545.422C623.554 589.343 627.05 619.736 622.811 639.348C615.826 683.678 572.197 677.575 536.353 645.137C514.822 626.412 498.428 609.008 483.627 596.645C465.889 577.125 442.75 616.6 420.299 617.061C382.111 616.987 388.349 573.651 356.323 593.08C342.838 601.032 328.09 610.305 311.77 621.182C273.005 645.391 244.364 649.059 225.091 642.859C184.83 639.28 170.637 595.36 179.504 553.528C184.882 529.125 197.906 505.497 218.011 490.604C244.782 470.762 284.45 456.283 296.862 419.671C306.059 396.47 248.617 366.138 263.3 323.841C272.468 295.854 303.557 282.388 305.376 260.465C307.317 237.052 309.012 218.246 309.412 207.795Z" stroke="#1E1B4B" stroke-width="6"/>
<path d="M327.539 232.665C321.796 180.657 373.751 194.34 384.643 222.649C403.811 271.916 424.995 284.446 459.058 296.666C474.592 305.973 479.685 269.994 505.336 265.042C530.988 260.09 541.847 294.732 556.544 279.397C579.498 256.153 600.428 248.842 616.756 251.807C632.454 253.375 644.414 265.048 649.724 281.337C654.644 296.686 653.637 316.064 644.189 334.857C622.787 360.598 623.12 400.655 611.393 418.586C595.53 434.463 615.941 450.6 610.73 482.473C605.519 514.345 578.755 512.421 585.704 534.671C597.635 570.469 599.935 595.003 595.861 610.688C589.627 647.259 552.471 641.648 521.612 614.369C502.694 598.531 487.866 584.098 474.324 574.583C458.978 558.637 439.057 591.99 419.627 592.884C386.986 593.392 391.487 557.629 364.144 574.08C352.269 580.956 339.417 588.785 325.329 597.834C291.102 617.933 266.522 619.015 250.822 611.955C217.341 608.431 205.694 571.259 213.368 535.883C218.132 515.046 229.357 494.909 246.57 482.158C271.359 463.782 305.685 450.718 316.244 416.715C323.97 396.464 275.846 370.129 287.899 333.812C295.352 309.435 321.098 297.171 322.69 277.988C324.375 257.67 326.471 241.494 327.539 232.665Z" stroke="#1E1B4B" stroke-width="6"/>
<path d="M346.465 257.532C342.757 215.732 385.198 227.016 394.231 250.566C412.279 296.975 432.222 306.034 462.817 313.929C475.684 321.129 480.403 291.76 501.555 287.316C522.707 282.872 532.056 310.217 544.304 297.943C563.653 279.343 581.149 274.138 594.588 277.475C607.312 279.181 616.978 289.253 620.984 303.021C624.678 316.035 623.289 332.274 614.536 347.768C592.244 370.275 597.48 413.169 588.341 430.429C575.753 444.173 591.394 457.672 586.318 483.3C581.243 508.928 558.702 506.998 563.325 523.934C571.799 551.599 572.897 570.269 568.999 582.022C563.534 610.826 532.948 605.706 507.156 583.591C490.902 570.642 477.678 559.182 465.432 552.518C452.518 540.151 435.868 567.377 419.511 568.707C392.503 569.799 395.256 541.615 372.668 555.086C362.434 560.885 351.513 567.27 339.695 574.49C310.096 590.475 289.644 588.964 277.555 581.039C250.943 577.569 241.872 547.15 248.334 518.233C252.471 500.964 261.868 484.321 276.143 473.713C298.883 456.8 327.777 445.15 336.454 413.751C342.688 396.45 304.009 374.113 313.401 343.779C319.119 323.011 339.455 311.949 340.816 295.506C342.241 278.285 344.731 264.739 346.465 257.532Z" stroke="#1E1B4B" stroke-width="6"/>
<path d="M364.857 282.398C363.17 250.819 396.326 259.7 403.549 278.489C420.582 322.054 439.401 327.635 466.703 331.194C476.971 336.283 481.344 313.531 498.111 309.595C514.878 305.659 522.771 325.697 532.637 316.487C548.487 302.538 562.644 299.442 573.267 303.155C583.085 304.999 590.508 313.471 593.23 324.716C595.717 335.394 593.938 348.493 585.828 360.685C562.511 379.959 572.693 425.722 566.096 442.317C556.715 453.929 567.667 464.788 562.697 484.163C557.727 503.537 539.284 501.602 541.604 513.213C546.662 532.733 546.562 545.527 542.817 553.34C538.089 574.366 513.908 569.737 493.042 552.792C479.361 542.734 467.667 534.252 456.647 530.446C446.094 521.663 432.624 542.756 419.25 544.523C397.727 546.201 398.745 525.608 380.788 536.096L380.298 536.363C371.797 541.005 362.907 545.858 353.475 551.146C328.34 563.011 311.902 558.898 303.364 550.1C283.479 546.683 276.938 523.023 282.222 500.572C285.755 486.876 293.376 473.728 304.791 465.266C325.613 449.811 349.233 439.574 356.075 410.772C360.85 396.421 331.411 378.084 338.191 353.738C342.204 336.581 357.236 326.719 358.373 313.017C359.545 298.894 362.447 287.98 364.857 282.398Z" stroke="#1E1B4B" stroke-width="6"/>
<path d="M383.737 308.471C384.084 287.25 407.696 293.691 413.054 307.634C428.943 348.158 446.498 350.237 470.299 349.446C477.89 352.403 481.883 336.368 494.135 332.957C506.387 329.547 512.762 342.19 520.169 336.085C532.398 326.848 543.107 325.874 550.831 329.945C557.667 331.921 562.789 338.754 564.205 347.426C565.465 355.721 563.308 365.621 555.903 374.457C531.731 390.411 546.792 438.834 542.789 454.689C536.688 464.117 542.864 472.288 538.037 485.324C533.21 498.36 519.008 496.429 519.003 502.665C520.603 513.954 519.303 520.817 515.739 524.657C511.785 537.813 494.197 533.695 478.419 521.994C467.416 514.873 457.34 509.405 447.63 508.473C439.52 503.312 429.333 518.18 419.046 520.375C403.177 522.632 402.448 509.72 389.263 517.178C382.265 520.802 375.154 524.273 367.82 527.807C347.341 535.5 335.046 528.805 330.126 519.176C317.125 515.826 313.165 499.031 317.231 483.145C320.133 473.081 325.918 463.488 334.384 457.208C353.132 443.282 371.295 434.504 376.25 408.427C379.529 397.092 359.559 382.836 363.674 364.586C365.949 351.116 375.559 342.499 376.465 331.598C377.375 320.636 380.666 312.403 383.737 308.471Z" stroke="#1E1B4B" stroke-width="6"/>
<path d="M402.895 333.371C405.268 322.435 419.412 326.456 422.919 335.597C437.691 373.171 454.008 371.763 474.356 366.634C479.291 367.47 482.912 358.1 490.686 355.206C498.46 352.312 503.332 357.609 508.302 354.587C516.942 350.028 524.233 351.169 529.082 355.606C532.958 357.715 535.797 362.928 535.915 369.053C535.955 374.99 533.42 381.721 526.708 387.229C501.654 399.905 521.589 451.078 520.162 466.228C517.319 473.497 518.749 479.006 514.058 485.749C509.367 492.493 499.367 490.56 497.049 491.451C495.211 494.557 492.715 495.521 489.327 495.408C486.138 500.744 475.089 497.128 464.354 490.631C456.003 486.423 447.525 483.95 439.106 485.88C433.417 484.321 426.486 493.012 419.257 495.639C408.994 498.478 406.527 493.197 398.074 497.649C392.71 500.186 387.521 502.2 382.447 503.893C366.575 507.442 358.388 498.158 357.062 487.681C350.895 484.392 349.499 474.406 352.358 465.033C354.636 458.57 358.601 452.501 364.144 448.384C380.85 435.954 393.606 428.612 396.688 405.201C398.482 396.848 387.912 386.633 389.379 374.423C389.927 364.601 394.154 357.207 394.829 349.078C395.48 341.244 399.163 335.667 402.895 333.371Z" stroke="#1E1B4B" stroke-width="6"/>
</svg>
