<svg width="418" height="256" viewBox="0 0 418 256" fill="none" xmlns="http://www.w3.org/2000/svg">
<path d="M387.034 193.757L383.115 174.124H339.329L332.362 193.618L297.268 193.686C319.822 139.361 336.577 99.1347 347.497 72.9756C350.354 66.1345 355.422 62.6443 362.894 62.6966C368.606 62.749 377.924 62.749 390.864 62.714L418 193.704L387.034 193.757ZM349.169 147.232H377.402L366.865 98.0189L349.169 147.232ZM122.997 62.6791L158.283 62.714L103.734 193.775L68.012 193.739C59.0294 159.121 50.1585 124.474 41.3995 89.7993C39.6578 82.8885 36.2092 78.0538 29.5735 75.7677C19.76 72.4833 9.9011 69.3358 0 66.3264V62.714H56.3777C66.131 62.714 71.8263 67.4434 73.655 77.1464C75.5012 86.8674 80.134 111.631 87.5885 151.384L122.997 62.6791ZM206.771 62.714L178.886 193.757L145.29 193.704L173.122 62.6791L206.771 62.714ZM274.869 60.2883C284.919 60.2883 297.582 63.4296 304.861 66.3264L298.975 93.4804C292.391 90.8283 281.557 87.2503 272.449 87.373C259.212 87.6004 251.027 93.1663 251.027 98.5064C251.027 107.197 265.239 111.579 279.869 121.071C296.553 131.892 298.766 141.612 298.557 152.187C298.33 174.09 279.869 195.712 240.925 195.712C223.16 195.45 216.751 193.966 202.26 188.801L208.391 160.459C223.142 166.637 229.395 168.609 242.004 168.609C253.551 168.609 263.462 163.933 263.549 155.782C263.619 149.989 260.066 147.109 247.108 139.955C234.15 132.782 215.967 122.869 216.211 102.922C216.506 77.4082 240.629 60.2883 274.869 60.2883Z" fill="white"/>
</svg>
